<svg xmlns="http://www.w3.org/2000/svg" viewBox="0 0 568.47 141.33"><defs><style>.cls-1{fill:#cc3230;}.cls-2{fill:#c48d8d;}.cls-3{fill:#09a7ce;}.cls-4{fill:#71a9b6;}.cls-5{fill:#c5a1cb;}</style></defs><g id="Layer_2" data-name="Layer 2"><g id="Layer_1-2" data-name="Layer 1"><g id="logo"><path class="cls-1" d="M20.53,95.14V108c0,9.87,4.34,13.42,11.25,13.42S43,117.84,43,108V77.57C43,67.7,38.69,64,31.78,64S20.53,67.7,20.53,77.57v4.15H0L4,1.58H61.19V21.32H23.49l-1.78,33C25.66,47.77,32,44.21,40.66,44.21c16,0,24.08,11.26,24.08,31.59v30.79c0,22.11-11,34.74-32.37,34.74S0,128.7,0,106.59V95.14Z"/><path class="cls-2" d="M79.15,1.58h21.71V139.75H79.15Z"/><path class="cls-2" d="M136,39.67V139.75H116.45V1.58h27.24L166,84.28V1.58h19.34V139.75H163Z"/><path class="cls-3" d="M271.2,139.75H249.29l-3.75-25.07H218.89l-3.75,25.07H195.21L217.31,1.58h31.78ZM221.66,95.93h20.92L232.12,26.06Z"/><path class="cls-4" d="M326.66,139.75c-1.18-3.55-2-5.72-2-17V101.06c0-12.83-4.34-17.56-14.21-17.56H303v56.25H281.27V1.58H314c22.5,0,32.18,10.46,32.18,31.78V44.21c0,14.22-4.54,23.49-14.22,28,10.86,4.54,14.41,15,14.41,29.41V123c0,6.71.2,11.65,2.37,16.78ZM303,21.32V63.76h8.49c8.09,0,13-3.56,13-14.61V35.53c0-9.87-3.35-14.21-11.05-14.21Z"/><path class="cls-4" d="M358.84,34.74c0-22.11,11.64-34.74,33-34.74s33,12.63,33,34.74v71.85c0,22.11-11.64,34.74-33,34.74s-33-12.63-33-34.74ZM380.55,108c0,9.87,4.34,13.62,11.25,13.62s11.25-3.75,11.25-13.62V33.36c0-9.87-4.34-13.62-11.25-13.62s-11.25,3.75-11.25,13.62Z"/><path class="cls-4" d="M486.94,66.12,479,139.75h-29.8L433.84,1.58H455l11.65,109,10.46-109H498l10.86,109.75L520.1,1.58h18.95l-15.4,138.17H494.83Z"/><path class="cls-5" d="M552.52,10.5V8l2.86-.43v-3l-2.86-.42V1.83l15.77,2.52V8Zm5-5.65V7.24l8-1.2Z"/><path class="cls-5" d="M564.66,22.55h-.56c-1.62,0-2.66-.5-3.18-1.6-.51,1.33-1.71,1.85-3.37,1.85h-1.29c-2.43,0-3.74-1.29-3.74-3.76v-3.9h15.77v3.74C568.29,21.44,567.1,22.55,564.66,22.55Zm-5-4.93h-4.84V19c0,.83.38,1.28,1.55,1.28h1.37c1.47,0,1.92-.47,1.92-1.6Zm6.42,0h-4.17v1c0,.93.41,1.49,1.67,1.49h.88c1.12,0,1.62-.38,1.62-1.26Z"/><path class="cls-5" d="M561.65,26.76v3.4h-2.26v-3.4h-4.61V31h-2.26V24.28h15.77V31H566V26.76Z"/><path class="cls-5" d="M568.29,31.85V39.5H566V36.91H552.52V34.44H566V31.85Z"/><path class="cls-5" d="M568.29,39.86v7.66H566V44.93H552.52V42.45H566V39.86Z"/><path class="cls-5" d="M561.65,51.08v3.4h-2.26v-3.4h-4.61v4.28h-2.26V48.6h15.77v6.76H566V51.08Z"/><path class="cls-5" d="M552.52,62.07a4.77,4.77,0,0,1,1.94-.23h2.48c1.46,0,2-.49,2-1.62v-.86h-6.42V56.89h15.77v3.73c0,2.57-1.19,3.68-3.63,3.68h-1.24c-1.62,0-2.67-.52-3.19-1.63-.52,1.24-1.71,1.65-3.36,1.65h-2.43a4.63,4.63,0,0,0-1.92.27ZM566,59.36H561.2v1c0,.93.4,1.49,1.66,1.49h1.56c1.12,0,1.62-.38,1.62-1.26Z"/><path class="cls-5" d="M568.29,68.71v7.66H566v-2.6H552.52V71.3H566V68.71Z"/><path class="cls-5" d="M568.29,77.44v2.48H552.52V77.44Z"/><path class="cls-5" d="M558.4,88.91h-2.09c-2.52,0-4-1.26-4-3.7s1.45-3.69,4-3.69h8.2c2.52,0,4,1.26,4,3.69s-1.44,3.7-4,3.7H563V86.56h1.69c1.13,0,1.56-.49,1.56-1.28S565.79,84,564.66,84h-8.51c-1.13,0-1.53.49-1.53,1.28s.4,1.28,1.53,1.28h2.25Z"/><path class="cls-5" d="M568.29,89.69v7.66H566V94.76H552.52V92.28H566V89.69Z"/><path class="cls-5" d="M552.52,105.59v-2.5l2.86-.43v-3l-2.86-.42V96.92l15.77,2.52v3.63Zm5-5.65v2.39l8-1.2Z"/><path class="cls-5" d="M558.4,113.92h-2.09c-2.52,0-4-1.26-4-3.69s1.45-3.69,4-3.69h8.2c2.52,0,4,1.26,4,3.69s-1.44,3.69-4,3.69H563v-2.34h1.69c1.13,0,1.56-.49,1.56-1.28s-.43-1.29-1.56-1.29h-8.51c-1.13,0-1.53.5-1.53,1.29s.4,1.28,1.53,1.28h2.25Z"/><path class="cls-5" d="M568.29,114.71v7.66H566v-2.59H552.52V117.3H566v-2.59Z"/><path class="cls-5" d="M564.51,123.24c2.52,0,4,1.33,4,3.77s-1.44,3.76-4,3.76h-8.2c-2.52,0-4-1.33-4-3.76s1.45-3.77,4-3.77Zm-8.36,2.48c-1.13,0-1.55.5-1.55,1.29s.42,1.28,1.55,1.28h8.51c1.13,0,1.56-.5,1.56-1.28s-.43-1.29-1.56-1.29Z"/><path class="cls-5" d="M561.65,134.84v3.4h-2.26v-3.4h-4.61v4.28h-2.26v-6.76h15.77v6.76H566v-4.28Z"/></g></g></g></svg>